<svg id="Layer_1" data-name="Layer 1" xmlns="http://www.w3.org/2000/svg" viewBox="0 0 1200 1200"><defs><style>.cls-1{fill:#ffc70d;}.cls-2{fill:#ffc809;}.cls-3{fill:#fff;}.cls-4{fill:#ffc905;}</style></defs><path class="cls-1" d="M214.62,665.84q-10.77,30-21.53,59.95L251.78,702a35.94,35.94,0,0,1-37.16-36.19Z"/><path class="cls-2" d="M252.42,401.81l-59.33-23.19,22.11,59.32a36,36,0,0,1,37.22-36.13Z"/><path class="cls-3" d="M559.79,519.37V378.09h24.1V519.37Zm10.79-118.16V378.09h52.08v23.12Zm0,60.83V438.92H617.8V462Z"/><path class="cls-3" d="M635.1,402v-23.9h24.1V402Zm0,117.38V418.51h24.1V519.37Z"/><path class="cls-3" d="M676.49,519.37V418.51h24.3V519.37Zm39.65,0V448.15q0-4.77-1.95-7.24a7,7,0,0,0-5.83-2.48q-3.89,0-5.73,2.43t-1.84,7.19l-2-11.95q3.12-9.53,8.94-14.43a19.51,19.51,0,0,1,12.83-4.91q9.33,0,14.53,6.71t5.19,18.85v77.05Z"/><path class="cls-3" d="M777.16,521q-9.43,0-14.63-7.19t-5.19-20.21V444.16q0-13,5.24-20.16t14.58-7.14a18.28,18.28,0,0,1,12.19,4.81q5.6,4.81,8.89,13.46l-2,12.63a12,12,0,0,0-.92-5,7.2,7.2,0,0,0-2.57-3.06,7.43,7.43,0,0,0-4.09-1.07,7.1,7.1,0,0,0-5.73,2.43q-2,2.43-2,6.9v42.17a9.72,9.72,0,0,0,2,6.61,7.19,7.19,0,0,0,5.73,2.33,7.68,7.68,0,0,0,4.09-1,6.75,6.75,0,0,0,2.57-3.06,12.05,12.05,0,0,0,.92-5l1.36,13.5a27.24,27.24,0,0,1-7.87,12.83A18.44,18.44,0,0,1,777.16,521Zm19-1.65V378.09h24.1V519.37Z"/><path class="cls-3" d="M839.54,519.37V418.51h24.39V519.37Zm40.62,0V448.15q0-4.77-2.09-7.24a7.63,7.63,0,0,0-6.17-2.48,7.3,7.3,0,0,0-5.93,2.43q-2,2.43-2,7.19l-2-12.53q3.3-9.24,9.23-14a20.61,20.61,0,0,1,13.21-4.76q9.63,0,14.87,6.07t5.25,17.45v79.09Zm40.51,0V448.15q0-4.77-2-7.24a7.21,7.21,0,0,0-6-2.48,7.69,7.69,0,0,0-6.17,2.43c-1.4,1.62-2.09,4-2.09,7.19l-1.75-12.92q3.4-9.13,9.33-13.75a20.82,20.82,0,0,1,13.11-4.62q9.43,0,14.68,6.71t5.24,18.85v77.05Z"/><path class="cls-3" d="M984.81,530.64,954.59,418.51h22.73l19.15,87.55Zm18.07-112.13h22.74L998.51,543q-2,9.33-9.18,13.9T970,561.44h-7.68v-23.9h8.16a13.12,13.12,0,0,0,7.24-1.7c1.72-1.13,2.93-3.61,3.65-7.43Z"/><path class="cls-1" d="M559.79,722.37V581.09H584V722.37Zm13.8,0V699.73h21.18a9.61,9.61,0,0,0,7-2.38,8.8,8.8,0,0,0,2.48-6.66V671.75q0-5.25-2.53-8.17t-7.28-2.91h-20.8V638.32H593.8a8.37,8.37,0,0,0,6.66-2.72c1.58-1.81,2.38-4.4,2.38-7.77V612.67a9,9,0,0,0-2.38-6.66,8.91,8.91,0,0,0-6.56-2.38H573.59V581.09h22.74q14.38,0,22.3,7.63t7.92,21.52V625.4q0,9.61-5.39,15.79T606,649q10.68,1.46,16.57,7.87t5.87,16.81v19.24q0,14-7.82,21.72t-22.1,7.72Z"/><path class="cls-1" d="M674,723.83q-15.08,0-23.47-8.12t-8.4-22.88V652.6q0-15.74,8.21-24.29t22.88-8.55q15.06,0,23.32,8.36t8.26,23.71v28.56H661.53V662.81h19.92v-12a10.35,10.35,0,0,0-2.19-7,7.61,7.61,0,0,0-6.07-2.52,6.7,6.7,0,0,0-5.64,2.67q-2,2.67-2,7.53v42.17a8.67,8.67,0,0,0,2.24,6.41,9.92,9.92,0,0,0,12,.39,6.72,6.72,0,0,0,2-5.25v-3.49l23.22.19v2.82q0,13.89-8.16,21.52T674,723.83Z"/><path class="cls-1" d="M739.85,724q-9.44,0-14.63-7.19T720,696.62V647.16q0-13,5.25-20.16t14.58-7.14A18.3,18.3,0,0,1,752,624.67a32.76,32.76,0,0,1,8.89,13.46l-2,12.63a12,12,0,0,0-.92-5,7.22,7.22,0,0,0-2.58-3.06,7.37,7.37,0,0,0-4.08-1.07,7.1,7.1,0,0,0-5.73,2.43q-2,2.43-2,6.9v42.17a9.72,9.72,0,0,0,2,6.61,7.19,7.19,0,0,0,5.73,2.33,7.62,7.62,0,0,0,4.08-1A6.77,6.77,0,0,0,758,698a12.05,12.05,0,0,0,.92-5l1.36,13.5a27.24,27.24,0,0,1-7.87,12.83A18.44,18.44,0,0,1,739.85,724Zm19-1.65V581.09H783V722.37Z"/><path class="cls-1" d="M480,703l59.81,21.93q-11.68-29.42-23.36-58.84A35.94,35.94,0,0,1,480,703Z"/><path class="cls-4" d="M516.34,438.08q12.07-29.47,24.14-58.95l-59.67,21.15a36,36,0,0,1,35.53,37.8Z"/><path class="cls-1" d="M288,475h32.36l10.25-71.59c-7.41.13-49.34,1.57-81.44,36.13-28.93,31.16-30.14,68-30.2,76.59l68.49-9.71Z"/><path class="cls-1" d="M443.69,475H411.33l-10.25-71.59c7.4.13,49.34,1.57,81.44,36.13,28.93,31.16,30.14,68,30.2,76.59l-68.5-9.71Z"/><path class="cls-1" d="M443.69,627.39H411.33L401.08,699c7.4-.13,49.34-1.57,81.44-36.14,28.93-31.15,30.14-68,30.2-76.58L444.22,596Z"/><path class="cls-1" d="M288,627.39h32.36L330.62,699c-7.41-.13-49.34-1.57-81.44-36.14-28.93-31.15-30.14-68-30.2-76.58L287.47,596Z"/><path class="cls-1" d="M434.17,512.37l-14.56-2.52c-1-1.52-19-28-53.4-28.17-34.76-.14-53,26.77-53.93,28.17l-14.56,2.52c13.36-23.46,39.54-38.21,68-38.29C394.31,474,420.73,488.77,434.17,512.37Z"/><path class="cls-1" d="M434.17,591.26l-14.56,2.51c-1,1.53-19,28-53.4,28.18-34.76.14-53-26.77-53.93-28.18l-14.56-2.51c13.36,23.45,39.54,38.21,68,38.29C394.31,629.63,420.73,614.86,434.17,591.26Z"/><path class="cls-1" d="M406.79,518.61a165,165,0,0,0-85-2.89l-158.33,37.1,161.79,33.44a164.77,164.77,0,0,0,83.6,0l156.94-33.44Zm-42.19,58a25,25,0,1,1,25-25A25,25,0,0,1,364.6,576.58Z"/></svg>